<svg xmlns="http://www.w3.org/2000/svg" xmlns:xlink="http://www.w3.org/1999/xlink" width="940" zoomAndPan="magnify" viewBox="0 0 705 591.000005" height="788" preserveAspectRatio="xMidYMid meet" version="1.0"><defs><clipPath id="37a4381c4e"><path d="M 48 0 L 657 0 L 657 582.515625 L 48 582.515625 Z M 48 0 " clip-rule="nonzero"/></clipPath></defs><g clip-path="url(#37a4381c4e)"><path fill="#ffffff" d="M 569.25 582.578125 L 433.007812 582.578125 C 427.75 582.578125 423.488281 578.320312 423.488281 573.066406 L 423.488281 379.898438 L 284.910156 379.898438 L 284.910156 573.066406 C 284.910156 578.320312 280.648438 582.578125 275.390625 582.578125 L 135.742188 582.578125 C 130.488281 582.578125 126.226562 578.320312 126.226562 573.066406 L 126.226562 289.40625 L 58.167969 289.40625 C 54.242188 289.40625 50.71875 286.996094 49.296875 283.339844 C 47.871094 279.683594 48.84375 275.53125 51.738281 272.878906 L 346.066406 3.386719 C 349.707031 0.0546875 355.289062 0.0546875 358.925781 3.386719 L 653.257812 272.878906 C 656.152344 275.53125 657.121094 279.683594 655.699219 283.339844 C 654.277344 286.996094 650.753906 289.40625 646.828125 289.40625 L 578.769531 289.40625 L 578.769531 573.066406 C 578.769531 578.320312 574.507812 582.578125 569.25 582.578125 Z M 442.523438 563.554688 L 559.734375 563.554688 L 559.734375 279.894531 C 559.734375 274.640625 563.996094 270.382812 569.25 270.382812 L 622.351562 270.382812 L 352.496094 23.300781 L 82.644531 270.382812 L 135.742188 270.382812 C 141 270.382812 145.261719 274.640625 145.261719 279.894531 L 145.261719 563.554688 L 265.871094 563.554688 L 265.871094 370.382812 C 265.871094 365.128906 270.132812 360.871094 275.390625 360.871094 L 433.007812 360.871094 C 438.265625 360.871094 442.523438 365.128906 442.523438 370.382812 Z M 442.523438 563.554688 " fill-opacity="1" fill-rule="nonzero"/></g></svg>