<svg xmlns="http://www.w3.org/2000/svg" xmlns:xlink="http://www.w3.org/1999/xlink" width="940" zoomAndPan="magnify" viewBox="0 0 705 591.000005" height="788" preserveAspectRatio="xMidYMid meet" version="1.0"><path fill="#ffffff" d="M 352.527344 563.316406 C 331.246094 563.316406 312.082031 550.738281 303.5 531.226562 L 279.046875 541.921875 C 291.863281 571.074219 320.664062 590 352.527344 590 C 384.855469 590 413.777344 570.839844 426.359375 541.097656 L 401.785156 530.636719 C 393.320312 550.503906 374.039062 563.316406 352.527344 563.316406 Z M 352.527344 563.316406 " fill-opacity="1" fill-rule="nonzero"/><path fill="#ffffff" d="M 614.933594 472.917969 L 544.394531 414.140625 C 541.335938 411.554688 539.574219 407.910156 539.574219 403.914062 L 539.574219 242.628906 C 539.574219 191.023438 519 142.945312 481.613281 107.328125 C 459.628906 86.402344 433.527344 71.589844 405.3125 63.363281 C 405.902344 59.246094 406.136719 55.132812 405.785156 50.78125 C 403.785156 27.976562 386.972656 8.582031 364.871094 3.644531 C 348.644531 0 331.953125 3.761719 319.136719 13.988281 C 306.441406 24.214844 299.152344 39.378906 299.152344 55.71875 C 299.152344 58.425781 299.621094 60.894531 299.972656 63.480469 C 221.910156 86.753906 165.476562 160.34375 165.476562 247.566406 L 165.476562 403.796875 C 165.476562 407.792969 163.714844 411.554688 160.65625 414.023438 L 90.117188 472.800781 C 87.0625 475.386719 85.296875 479.148438 85.296875 483.027344 L 85.296875 496.429688 C 85.296875 503.835938 91.292969 509.832031 98.699219 509.832031 L 606.351562 509.832031 C 613.757812 509.832031 619.753906 503.835938 619.753906 496.429688 L 619.753906 483.027344 C 619.636719 479.148438 617.875 475.386719 614.933594 472.917969 Z M 325.722656 55.71875 C 325.722656 47.492188 329.367188 39.96875 335.714844 34.796875 C 342.179688 29.625 350.292969 27.742188 358.875 29.625 C 369.574219 32.09375 378.039062 41.847656 379.097656 53.015625 C 379.214844 54.542969 378.976562 56.074219 378.859375 57.601562 C 367.222656 55.957031 355.464844 55.367188 343.355469 55.839844 C 337.476562 56.074219 331.597656 56.660156 325.839844 57.601562 C 325.957031 56.894531 325.722656 56.308594 325.722656 55.71875 Z M 119.507812 483.144531 L 177.703125 434.597656 C 186.875 426.953125 192.164062 415.789062 192.164062 403.796875 L 192.164062 247.566406 C 192.164062 159.050781 259.179688 86.519531 344.765625 82.523438 C 389.207031 80.40625 431.179688 96.160156 463.15625 126.605469 C 495.132812 157.167969 512.769531 198.3125 512.769531 242.628906 L 512.769531 403.796875 C 512.769531 415.667969 518.058594 426.953125 527.230469 434.597656 L 585.425781 483.144531 Z M 119.507812 483.144531 " fill-opacity="1" fill-rule="nonzero"/></svg>