<svg xmlns="http://www.w3.org/2000/svg" xmlns:xlink="http://www.w3.org/1999/xlink" width="940" zoomAndPan="magnify" viewBox="0 0 705 591.000005" height="788" preserveAspectRatio="xMidYMid meet" version="1.0"><path fill="#ffffff" d="M 515.414062 209.292969 L 545.636719 191.84375 C 591.246094 165.507812 606.871094 107.183594 580.539062 61.570312 C 580.539062 61.566406 580.539062 61.5625 580.535156 61.5625 C 554.203125 15.949219 495.882812 0.320312 450.273438 26.65625 C 365.640625 75.523438 229.855469 153.929688 145.222656 202.796875 C 99.613281 229.132812 83.984375 287.460938 110.316406 333.074219 C 110.316406 333.074219 110.320312 333.078125 110.320312 333.078125 C 127.332031 362.542969 157.683594 379.496094 189.339844 380.710938 C 189.34375 380.710938 159.121094 398.160156 159.121094 398.160156 C 113.511719 424.492188 97.886719 482.820312 124.21875 528.433594 C 124.21875 528.4375 124.21875 528.4375 124.222656 528.441406 C 150.554688 574.054688 208.875 589.683594 254.480469 563.347656 C 339.117188 514.476562 474.902344 436.074219 559.535156 387.203125 C 605.144531 360.871094 620.773438 302.542969 594.441406 256.929688 C 594.4375 256.925781 594.4375 256.925781 594.4375 256.921875 C 577.425781 227.457031 547.066406 210.503906 515.414062 209.292969 Z M 465.347656 221.351562 L 465.761719 221.101562 L 538.335938 179.195312 C 576.960938 156.894531 590.195312 107.5 567.894531 68.871094 C 567.890625 68.867188 567.890625 68.867188 567.890625 68.863281 C 545.589844 30.234375 496.203125 17 457.578125 39.300781 C 372.941406 88.171875 237.15625 166.574219 152.523438 215.445312 C 113.898438 237.746094 100.664062 287.140625 122.964844 325.769531 C 122.964844 325.773438 122.964844 325.773438 122.96875 325.777344 C 145.265625 364.40625 194.65625 377.640625 233.28125 355.335938 C 236.773438 353.324219 241.238281 354.519531 243.253906 358.011719 C 245.269531 361.503906 244.074219 365.96875 240.582031 367.984375 C 240.582031 367.984375 175.753906 405.417969 166.421875 410.804688 C 127.796875 433.109375 114.5625 482.503906 136.863281 521.128906 C 136.867188 521.132812 136.867188 521.136719 136.867188 521.136719 C 159.167969 559.765625 208.554688 573 247.179688 550.699219 C 331.816406 501.828125 467.601562 423.425781 552.234375 374.558594 C 590.859375 352.253906 604.09375 302.859375 581.792969 264.230469 C 581.792969 264.230469 581.792969 264.226562 581.789062 264.226562 C 559.492188 225.597656 510.101562 212.359375 471.476562 234.664062 C 471.457031 234.675781 463.5 239.179688 460.988281 232.019531 C 458.515625 224.960938 465.203125 221.433594 465.347656 221.351562 Z M 439.027344 304.800781 C 441.125 303.460938 442.390625 301.140625 442.394531 298.652344 C 442.394531 296.160156 441.125 293.84375 439.027344 292.5 L 307.828125 208.527344 C 305.582031 207.085938 302.730469 206.988281 300.386719 208.269531 C 298.046875 209.550781 296.589844 212.007812 296.589844 214.675781 L 296.589844 382.628906 C 296.589844 385.296875 298.046875 387.753906 300.386719 389.035156 C 302.730469 390.316406 305.582031 390.21875 307.828125 388.777344 Z M 421.546875 298.652344 L 311.191406 369.285156 C 311.195312 369.285156 311.195312 228.019531 311.195312 228.019531 Z M 421.546875 298.652344 " fill-opacity="1" fill-rule="evenodd"/></svg>